<svg xmlns="http://www.w3.org/2000/svg" xmlns:xlink="http://www.w3.org/1999/xlink" version="1.1" width="1596" height="1596" viewBox="4.8 -9.6 96.0 129.6">
<path d="M0 83.964h96v4h-96v-4z" fill="#000000"/>
	<path d="M8 0h4v96h-4v-96z" fill="#000000"/>
	<path d="M20 82c-0.512 0-1.024-0.196-1.416-0.584-0.78-0.772-0.78-2.048 0-2.828l16-16c0.78-0.776 2.048-0.776 2.828 0l9.448 9.448 11.188-48.484c0.164-0.708 0.704-1.272 1.4-1.472 0.704-0.2 1.452-0.004 1.968 0.508l13.804 13.804 10.908-29.092c0.388-1.032 1.536-1.556 2.576-1.168 1.036 0.388 1.56 1.54 1.168 2.58l-12 32c-0.24 0.632-0.78 1.104-1.444 1.248-0.672 0.144-1.36-0.060-1.836-0.54l-13.448-13.448-11.188 48.484c-0.164 0.708-0.7 1.276-1.4 1.472-0.696 0.2-1.448 0.008-1.964-0.508l-10.592-10.584-14.584 14.584c-0.392 0.384-0.904 0.58-1.416 0.58z" fill="#000000"/>
<text x="0.0" y="112.8" font-size="4.8" font-weight="bold" font-family="Helvetica Neue, Helvetica, Arial-Unicode, Arial, Sans-serif" fill="#000000">Created by iconsmind.com</text><text x="0.0" y="117.6" font-size="4.8" font-weight="bold" font-family="Helvetica Neue, Helvetica, Arial-Unicode, Arial, Sans-serif" fill="#000000">from the Noun Project</text></svg>
