<svg xmlns="http://www.w3.org/2000/svg" xmlns:xlink="http://www.w3.org/1999/xlink" version="1.1" id="Layer_1" x="0px" y="0px" viewBox="5.0 -10.0 100.0 135.0" enable-background="new 0 0 100 100" xml:space="preserve" height="800px" width="800px">
<g>
	<path fill="#000000" d="M87.775,70.104H70.952c-0.276,0-0.5-0.224-0.5-0.5s0.224-0.5,0.5-0.5h16.823c0.276,0,0.5,0.224,0.5,0.5   S88.052,70.104,87.775,70.104z"/>
</g>
<g>
	<path fill="#000000" d="M87.775,74.271H70.952c-0.276,0-0.5-0.224-0.5-0.5s0.224-0.5,0.5-0.5h16.823c0.276,0,0.5,0.224,0.5,0.5   S88.052,74.271,87.775,74.271z"/>
</g>
<g>
	<path fill="#000000" d="M80.53,78.562h-9.578c-0.276,0-0.5-0.224-0.5-0.5s0.224-0.5,0.5-0.5h9.578c0.276,0,0.5,0.224,0.5,0.5   S80.807,78.562,80.53,78.562z"/>
</g>
<g>
	<path fill="#000000" d="M29.162,28.771H12.338c-0.276,0-0.5-0.224-0.5-0.5s0.224-0.5,0.5-0.5h16.824c0.276,0,0.5,0.224,0.5,0.5   S29.438,28.771,29.162,28.771z"/>
</g>
<g>
	<path fill="#000000" d="M29.162,32.938H12.338c-0.276,0-0.5-0.224-0.5-0.5s0.224-0.5,0.5-0.5h16.824c0.276,0,0.5,0.224,0.5,0.5   S29.438,32.938,29.162,32.938z"/>
</g>
<g>
	<path fill="#000000" d="M21.917,37.229h-9.579c-0.276,0-0.5-0.224-0.5-0.5s0.224-0.5,0.5-0.5h9.579c0.276,0,0.5,0.224,0.5,0.5   S22.193,37.229,21.917,37.229z"/>
</g>
<g>
	<rect x="59.012" y="72.902" fill="#000000" width="3.496" height="6.574"/>
</g>
<g>
	<rect x="54.012" y="70.125" fill="#000000" width="3.496" height="9.35"/>
</g>
<g>
	<rect x="64.274" y="68.066" fill="#000000" width="3.496" height="11.409"/>
</g>
<g>
	<path fill="#000000" d="M93,88H7V22h86V88z M9,86h82V24H9V86z"/>
</g>
<g>
	<path fill="#000000" d="M93,24H7v-9.204C7,13.069,8.752,12,10.375,12h79.25C91.248,12,93,13.069,93,14.796V24z M9,22h82v-7.204   C91,14.402,90.306,14,89.625,14h-79.25C9.694,14,9,14.402,9,14.796V22z"/>
</g>
<g>
	<circle fill="#000000" cx="14.208" cy="17.792" r="1.542"/>
</g>
<g>
	<circle fill="#000000" cx="19.208" cy="17.792" r="1.542"/>
</g>
<g>
	<circle fill="#000000" cx="24.208" cy="17.792" r="1.542"/>
</g>
<g>
	<circle fill="#000000" cx="12.78" cy="63.137" r="1.246"/>
</g>
<g>
	<circle fill="#000000" cx="20.389" cy="55.492" r="1.246"/>
</g>
<g>
	<circle fill="#000000" cx="46.683" cy="48.568" r="1.246"/>
</g>
<g>
	<circle fill="#000000" cx="54.362" cy="56.486" r="1.246"/>
</g>
<g>
	<circle fill="#000000" cx="67.945" cy="42.902" r="1.246"/>
</g>
<g>
	<circle fill="#000000" cx="76.45" cy="51.408" r="1.246"/>
</g>
<g>
	<circle fill="#000000" cx="30.067" cy="65.009" r="1.246"/>
</g>
<g>

		<rect x="15.972" y="56.536" transform="matrix(0.7071 0.7071 -0.7071 0.7071 46.8082 5.743)" fill="#000000" width="1" height="5.676"/>
</g>
<g>

		<rect x="21.156" y="59.752" transform="matrix(0.7274 0.6862 -0.6862 0.7274 48.2616 -0.9762)" fill="#000000" width="8.407" height="1"/>
</g>
<g>

		<rect x="37.904" y="47.958" transform="matrix(0.7071 0.7071 -0.7071 0.7071 51.4469 -10.5051)" fill="#000000" width="1" height="17.783"/>
</g>
<g>

		<rect x="47.518" y="52.281" transform="matrix(0.7071 0.7071 -0.7071 0.7071 52.1548 -20.3606)" fill="#000000" width="6.277" height="1"/>
</g>
<g>

		<rect x="60.64" y="42.625" transform="matrix(0.7071 0.7071 -0.7071 0.7071 53.0559 -28.6737)" fill="#000000" width="1" height="14.165"/>
</g>
<g>

		<rect x="68.65" y="46.835" transform="matrix(0.707 0.7072 -0.7072 0.707 54.6771 -37.3159)" fill="#000000" width="7.453" height="1"/>
</g>
<g>

		<rect x="83.336" y="35.493" transform="matrix(0.7071 0.7071 -0.7071 0.7071 55.6836 -46.3871)" fill="#000000" width="1" height="17.059"/>
</g>
<text x="0.0" y="117.5" font-size="5.0" font-weight="bold" font-family="Helvetica Neue, Helvetica, Arial-Unicode, Arial, Sans-serif" fill="#000000">Created by buzzyrobot</text><text x="0.0" y="122.5" font-size="5.0" font-weight="bold" font-family="Helvetica Neue, Helvetica, Arial-Unicode, Arial, Sans-serif" fill="#000000">from the Noun Project</text></svg>
